name rise30.6535peak61.5555fall82.9339.mot
datacolumns 19
datarows 30
range 20.83324700000000 20.88159000000000
endheader
time	ground_force1_vx	ground_force1_vy	ground_force1_vz	ground_force1_px	ground_force1_py	ground_force1_pz	ground_force2_vx	ground_force2_vy	ground_force2_vz	ground_force2_px	ground_force2_py	ground_force2_pz	ground_torque1_x	ground_torque1_y	ground_torque1_z	ground_torque2_x	ground_torque2_y	ground_torque2_z	
20.83324700000000	12.90485900000000	697.01056300000005	43.24027900000000	0.24965900000000	0.00000000000000	0.09739000000000	0.00000000000000	0.00000000000000	0.00000000000000	0.00000000000000	0.00000000000000	0.00000000000000	0.00000000000000	19.26969400000000	0.00000000000000	0.00000000000000	0.00000000000000	0.00000000000000	
20.83491500000000	12.64066300000000	696.79418699999997	43.15065800000000	0.24915300000000	0.00000000000000	0.09719700000000	0.00000000000000	0.00000000000000	0.00000000000000	0.00000000000000	0.00000000000000	0.00000000000000	0.00000000000000	19.26658900000000	0.00000000000000	0.00000000000000	0.00000000000000	0.00000000000000	
20.83659700000000	12.36512900000000	696.63716799999997	43.06636600000000	0.24863800000000	0.00000000000000	0.09700500000000	0.00000000000000	0.00000000000000	0.00000000000000	0.00000000000000	0.00000000000000	0.00000000000000	0.00000000000000	19.26921400000000	0.00000000000000	0.00000000000000	0.00000000000000	0.00000000000000	
20.83824800000000	12.07782100000000	696.54029300000002	42.98732100000000	0.24811300000000	0.00000000000000	0.09681400000000	0.00000000000000	0.00000000000000	0.00000000000000	0.00000000000000	0.00000000000000	0.00000000000000	0.00000000000000	19.27744400000000	0.00000000000000	0.00000000000000	0.00000000000000	0.00000000000000	
20.83991900000000	11.77833700000000	696.50433199999998	42.91344300000000	0.24757700000000	0.00000000000000	0.09662500000000	0.00000000000000	0.00000000000000	0.00000000000000	0.00000000000000	0.00000000000000	0.00000000000000	0.00000000000000	19.29115400000000	0.00000000000000	0.00000000000000	0.00000000000000	0.00000000000000	
20.84158300000000	11.46630500000000	696.53003300000000	42.84465600000000	0.24702600000000	0.00000000000000	0.09643600000000	0.00000000000000	0.00000000000000	0.00000000000000	0.00000000000000	0.00000000000000	0.00000000000000	0.00000000000000	19.31021500000000	0.00000000000000	0.00000000000000	0.00000000000000	0.00000000000000	
20.84325100000000	11.14139100000000	696.61811200000000	42.78089000000000	0.24646000000000	0.00000000000000	0.09624900000000	0.00000000000000	0.00000000000000	0.00000000000000	0.00000000000000	0.00000000000000	0.00000000000000	0.00000000000000	19.33449500000000	0.00000000000000	0.00000000000000	0.00000000000000	0.00000000000000	
20.84491300000000	10.80329300000000	696.76925500000004	42.72207600000000	0.24587600000000	0.00000000000000	0.09606400000000	0.00000000000000	0.00000000000000	0.00000000000000	0.00000000000000	0.00000000000000	0.00000000000000	0.00000000000000	19.36386100000000	0.00000000000000	0.00000000000000	0.00000000000000	0.00000000000000	
20.84659100000000	10.45175200000000	696.98411199999998	42.66815000000000	0.24527300000000	0.00000000000000	0.09588100000000	0.00000000000000	0.00000000000000	0.00000000000000	0.00000000000000	0.00000000000000	0.00000000000000	0.00000000000000	19.39818000000000	0.00000000000000	0.00000000000000	0.00000000000000	0.00000000000000	
20.84824600000000	10.08654100000000	697.26328899999999	42.61905500000000	0.24465000000000	0.00000000000000	0.09570000000000	0.00000000000000	0.00000000000000	0.00000000000000	0.00000000000000	0.00000000000000	0.00000000000000	0.00000000000000	19.43731700000000	0.00000000000000	0.00000000000000	0.00000000000000	0.00000000000000	
20.84991600000000	9.70747600000000	697.60734600000001	42.57473600000000	0.24400600000000	0.00000000000000	0.09552200000000	0.00000000000000	0.00000000000000	0.00000000000000	0.00000000000000	0.00000000000000	0.00000000000000	0.00000000000000	19.48113600000000	0.00000000000000	0.00000000000000	0.00000000000000	0.00000000000000	
20.85158500000000	9.31441200000000	698.01679000000001	42.53514300000000	0.24333900000000	0.00000000000000	0.09534700000000	0.00000000000000	0.00000000000000	0.00000000000000	0.00000000000000	0.00000000000000	0.00000000000000	0.00000000000000	19.52950300000000	0.00000000000000	0.00000000000000	0.00000000000000	0.00000000000000	
20.85325000000000	8.90724400000000	698.49207100000001	42.50023400000000	0.24264900000000	0.00000000000000	0.09517400000000	0.00000000000000	0.00000000000000	0.00000000000000	0.00000000000000	0.00000000000000	0.00000000000000	0.00000000000000	19.58228100000000	0.00000000000000	0.00000000000000	0.00000000000000	0.00000000000000	
20.85491200000000	8.48591000000000	699.03357500000004	42.46996900000000	0.24193500000000	0.00000000000000	0.09500500000000	0.00000000000000	0.00000000000000	0.00000000000000	0.00000000000000	0.00000000000000	0.00000000000000	0.00000000000000	19.63933500000000	0.00000000000000	0.00000000000000	0.00000000000000	0.00000000000000	
20.85658400000000	8.05038800000000	699.64162299999998	42.44431600000000	0.24119700000000	0.00000000000000	0.09483900000000	0.00000000000000	0.00000000000000	0.00000000000000	0.00000000000000	0.00000000000000	0.00000000000000	0.00000000000000	19.70053000000000	0.00000000000000	0.00000000000000	0.00000000000000	0.00000000000000	
20.85825300000000	7.60069700000000	700.31645900000001	42.42324800000000	0.24043400000000	0.00000000000000	0.09467600000000	0.00000000000000	0.00000000000000	0.00000000000000	0.00000000000000	0.00000000000000	0.00000000000000	0.00000000000000	19.76573100000000	0.00000000000000	0.00000000000000	0.00000000000000	0.00000000000000	
20.85991700000000	7.13689900000000	701.05825100000004	42.40674100000000	0.23964600000000	0.00000000000000	0.09451700000000	0.00000000000000	0.00000000000000	0.00000000000000	0.00000000000000	0.00000000000000	0.00000000000000	0.00000000000000	19.83480600000000	0.00000000000000	0.00000000000000	0.00000000000000	0.00000000000000	
20.86159400000000	6.65909700000000	701.86708099999998	42.39478100000000	0.23883300000000	0.00000000000000	0.09436100000000	0.00000000000000	0.00000000000000	0.00000000000000	0.00000000000000	0.00000000000000	0.00000000000000	0.00000000000000	19.90762000000000	0.00000000000000	0.00000000000000	0.00000000000000	0.00000000000000	
20.86324900000000	6.16743500000000	702.74294399999997	42.38735600000000	0.23799600000000	0.00000000000000	0.09420900000000	0.00000000000000	0.00000000000000	0.00000000000000	0.00000000000000	0.00000000000000	0.00000000000000	0.00000000000000	19.98404100000000	0.00000000000000	0.00000000000000	0.00000000000000	0.00000000000000	
20.86491300000000	5.66209900000000	703.68574200000000	42.38446200000000	0.23713500000000	0.00000000000000	0.09406100000000	0.00000000000000	0.00000000000000	0.00000000000000	0.00000000000000	0.00000000000000	0.00000000000000	0.00000000000000	20.06393800000000	0.00000000000000	0.00000000000000	0.00000000000000	0.00000000000000	
20.86659200000000	5.14331500000000	704.69527700000003	42.38610000000000	0.23625000000000	0.00000000000000	0.09391700000000	0.00000000000000	0.00000000000000	0.00000000000000	0.00000000000000	0.00000000000000	0.00000000000000	0.00000000000000	20.14718000000000	0.00000000000000	0.00000000000000	0.00000000000000	0.00000000000000	
20.86824900000000	4.61134800000000	705.77125000000001	42.39227500000000	0.23534200000000	0.00000000000000	0.09377700000000	0.00000000000000	0.00000000000000	0.00000000000000	0.00000000000000	0.00000000000000	0.00000000000000	0.00000000000000	20.23363600000000	0.00000000000000	0.00000000000000	0.00000000000000	0.00000000000000	
20.86991700000000	4.06650100000000	706.91325400000005	42.40300100000000	0.23441200000000	0.00000000000000	0.09364100000000	0.00000000000000	0.00000000000000	0.00000000000000	0.00000000000000	0.00000000000000	0.00000000000000	0.00000000000000	20.32317800000000	0.00000000000000	0.00000000000000	0.00000000000000	0.00000000000000	
20.87159400000000	3.50911600000000	708.12077199999999	42.41829500000000	0.23346100000000	0.00000000000000	0.09350900000000	0.00000000000000	0.00000000000000	0.00000000000000	0.00000000000000	0.00000000000000	0.00000000000000	0.00000000000000	20.41567700000000	0.00000000000000	0.00000000000000	0.00000000000000	0.00000000000000	
20.87325100000000	2.93957200000000	709.39317300000005	42.43817900000000	0.23249000000000	0.00000000000000	0.09338200000000	0.00000000000000	0.00000000000000	0.00000000000000	0.00000000000000	0.00000000000000	0.00000000000000	0.00000000000000	20.51100300000000	0.00000000000000	0.00000000000000	0.00000000000000	0.00000000000000	
20.87491900000000	2.35828100000000	710.72970899999996	42.46268200000000	0.23150100000000	0.00000000000000	0.09325800000000	0.00000000000000	0.00000000000000	0.00000000000000	0.00000000000000	0.00000000000000	0.00000000000000	0.00000000000000	20.60902900000000	0.00000000000000	0.00000000000000	0.00000000000000	0.00000000000000	
20.87658600000000	1.76569000000000	712.12950999999998	42.49183800000000	0.23049500000000	0.00000000000000	0.09313800000000	0.00000000000000	0.00000000000000	0.00000000000000	0.00000000000000	0.00000000000000	0.00000000000000	0.00000000000000	20.70962700000000	0.00000000000000	0.00000000000000	0.00000000000000	0.00000000000000	
20.87825100000000	1.16227800000000	713.59158600000001	42.52568200000000	0.22947300000000	0.00000000000000	0.09302300000000	0.00000000000000	0.00000000000000	0.00000000000000	0.00000000000000	0.00000000000000	0.00000000000000	0.00000000000000	20.81266900000000	0.00000000000000	0.00000000000000	0.00000000000000	0.00000000000000	
20.87991800000000	0.54855600000000	715.11481900000001	42.56425900000000	0.22843800000000	0.00000000000000	0.09291100000000	0.00000000000000	0.00000000000000	0.00000000000000	0.00000000000000	0.00000000000000	0.00000000000000	0.00000000000000	20.91802600000000	0.00000000000000	0.00000000000000	0.00000000000000	0.00000000000000	
20.88159000000000	-0.07493800000000	716.69796599999995	42.60761400000000	0.22738900000000	0.00000000000000	0.09280400000000	0.00000000000000	0.00000000000000	0.00000000000000	0.00000000000000	0.00000000000000	0.00000000000000	0.00000000000000	21.02557000000000	0.00000000000000	0.00000000000000	0.00000000000000	0.00000000000000	
